<svg width="1200" height="240" viewBox="0 0 1200 240" fill="none" xmlns="http://www.w3.org/2000/svg">
<g clip-path="url(#clip0_912_63)">
<path fill-rule="evenodd" clip-rule="evenodd" d="M189.391 200.126L209.991 172.739C211.944 170.143 213 166.983 213 163.735C213 161.463 212.483 159.221 211.489 157.178L153.863 38.808C150.346 31.5842 143.016 27 134.982 27L105.018 27C96.9838 27 89.6535 31.5842 86.1368 38.8081L28.5582 157.082C27.5328 159.188 27 161.5 27 163.842C27 167.132 28.0508 170.337 29.9992 172.988L49.4249 199.423C52.438 203.523 56.3636 205.863 60.1983 206.562C75.2564 209.309 97.9762 212.657 119.946 212.98C141.87 213.302 164.699 209.742 179.553 206.774C182.905 206.104 186.481 203.994 189.391 200.126ZM231.569 188.969C237.041 181.695 240 172.838 240 163.735C240 157.368 238.552 151.084 235.765 145.36L178.139 26.9898C170.101 10.4781 153.346 3.21192e-06 134.982 1.99141e-06L105.018 0C86.6538 -1.22051e-06 69.899 10.4781 61.8607 26.9898L4.28208 145.263C1.4643 151.051 0 157.405 0 163.842C0 172.884 2.88762 181.69 8.24204 188.976L27.6678 215.411C34.403 224.576 44.1642 231.083 55.3534 233.124C71.0712 235.991 95.4444 239.623 119.55 239.977C144.224 240.339 169.178 236.381 184.844 233.251C195.379 231.146 204.51 224.941 210.968 216.356L231.569 188.969Z" fill="#E98C37"/>
<path d="M363.405 180H375.674C377.829 180 378.493 180 378.99 176.596L382.638 153.957H435.362L439.01 176.596C439.507 179.66 440.171 180 442.326 180H454.595C456.751 180 458.409 179.83 457.911 176.596L444.481 94.8936C439.507 64.0851 434.202 60 411.984 60H405.518C383.633 60 378.493 64.0851 373.519 94.8936L360.089 176.596C359.591 180 361.249 180 363.405 180ZM385.125 138.468L392.254 95.234C395.404 76 399.218 75.8298 406.845 75.8298H410.658C418.616 75.8298 422.596 76 425.746 95.234L432.875 138.468H385.125Z" fill="#1D2123"/>
<path d="M525.407 180H538.015C540.23 180 541.422 178.82 541.422 176.629V148.331H573.793C603.607 148.331 614 135.351 614 113.774V94.5571C614 72.98 603.607 60 573.793 60H538.185C538.185 60 538.185 60 538.015 60H525.407C523.193 60 522 61.18 522 63.3714V176.629C522 178.82 523.193 180 525.407 180ZM541.422 132.654V75.6771H572.43C587.422 75.6771 594.578 80.5657 594.578 93.7143V114.617C594.578 127.934 587.422 132.654 572.43 132.654H541.422Z" fill="#1D2123"/>
<path d="M717.608 180H734.224C763.594 180 774 166.986 774 145.352V94.6479C774 73.0141 763.594 60 734.224 60H717.608C688.238 60 678 73.0141 678 94.6479V145.352C678 166.986 688.238 180 717.608 180ZM697.133 145.014V94.9859C697.133 82.1409 704.182 77.4084 718.951 77.4084H732.881C747.65 77.4084 754.867 82.1409 754.867 94.9859V145.014C754.867 158.028 747.65 162.592 732.881 162.592H718.951C704.182 162.592 697.133 158.028 697.133 145.014Z" fill="#1D2123"/>
<path d="M877.844 180H912.623C914.818 180 916 178.809 916 176.596V166.383C916 164.17 914.818 162.979 912.623 162.979H879.195C864.338 162.979 857.247 158.383 857.247 144.766V63.4043C857.247 61.1915 856.065 60 853.87 60H841.377C839.182 60 838 61.1915 838 63.4043V145.106C838 166.894 848.299 180 877.844 180Z" fill="#1D2123"/>
<path d="M1011.84 180H1046.62C1048.82 180 1050 178.809 1050 176.596V166.383C1050 164.17 1048.82 162.979 1046.62 162.979H1013.19C998.338 162.979 991.247 158.383 991.247 144.766V63.4043C991.247 61.1915 990.065 60 987.87 60H975.377C973.182 60 972 61.1915 972 63.4043V145.106C972 166.894 982.299 180 1011.84 180Z" fill="#1D2123"/>
<path d="M1143.61 180H1160.22C1189.59 180 1200 166.986 1200 145.352V94.6479C1200 73.0141 1189.59 60 1160.22 60H1143.61C1114.24 60 1104 73.0141 1104 94.6479V145.352C1104 166.986 1114.24 180 1143.61 180ZM1123.13 145.014V94.9859C1123.13 82.1409 1130.18 77.4084 1144.95 77.4084H1158.88C1173.65 77.4084 1180.87 82.1409 1180.87 94.9859V145.014C1180.87 158.028 1173.65 162.592 1158.88 162.592H1144.95C1130.18 162.592 1123.13 158.028 1123.13 145.014Z" fill="#1D2123"/>
</g>
<defs>
<clipPath id="clip0_912_63">
<rect width="1200" height="240" fill="white"/>
</clipPath>
</defs>
</svg>
